<?xml version="1.0" encoding="utf-8"?>
<!-- Generator: Adobe Illustrator 24.0.2, SVG Export Plug-In . SVG Version: 6.00 Build 0)  -->
<svg version="1.1" id="圖層_1" xmlns="http://www.w3.org/2000/svg" xmlns:xlink="http://www.w3.org/1999/xlink" x="0px" y="0px"
	 width="198.8px" height="96.5px" viewBox="0 0 198.8 96.5" style="enable-background:new 0 0 198.8 96.5;" xml:space="preserve">
<style type="text/css">
	.st0{fill:#FFE100;}
</style>
<g>
	<path class="st0" d="M29.6,49.5c-4.7,1.2-9.3,2.6-13.9,4c0-4.7,0-14,0-14l8-2.4l2.4-6.9l-10.4,3.1V19.6c0,0,9.2-2.8,13.9-4
		c0-2,0-4,0-6.1c-6.7,1.8-13.4,3.8-20,6.1c0,6.5,0,39.4,0,46.2c6.6-2.3,13.3-4.3,20.1-6C29.6,53.6,29.6,51.6,29.6,49.5z"/>
	<path class="st0" d="M175.9,37.1l4.2,1.2l3.1,21.2l6.3,2.1l-3.1-21.3l3.6-2.6l0.1-18.8c0,0-2.2-3-3.4-4.5c-5.6-1.8-11.2-3.5-16.9-5
		c0,2.1,0,46.2,0,46.2l6.2,1.7V37.1z M176.1,17.5c0,0,5.3,1.6,7.9,2.4c0,4.4,0,13.3,0,13.3l-7.9-2.4V17.5z"/>
	<path class="st0" d="M132,58l2.9-2.2c6.5,0.6,13.1,1.5,20.2,2.6c12.6,2,26.7,5,44.5,9.3c0,0-14.9-6.6-39.8-11.7
		c-10.8-2.2-23.4-4.1-37.5-5.1l2.3,6.5l0.8,2.3c7.3,0.5,14.6,1.1,23,2.2c7.7,1,16.3,2.3,26.5,4c0,0-8.9-2.8-23.9-5.3
		C145.5,59.6,139.1,58.7,132,58z"/>
	<path class="st0" d="M75,57.4l2.3-6.5c-10.6,0.7-20.4,2-29.1,3.5C18.3,59.6,0,67.7,0,67.7c23.4-5.7,40.3-9,55.9-10.9
		c2.9-0.4,5.8-0.7,8.7-1l2.9,2.2c-1.9,0.2-3.8,0.4-5.6,0.6c-23.1,2.7-37.4,7.2-37.4,7.2c17.8-3,30.7-4.7,42.6-5.7
		c2.3-0.2,4.6-0.4,6.9-0.5L75,57.4z"/>
	<path class="st0" d="M119.7,46.7c1.2,0.1,2.6,0.2,4.1,0.3c2,0.2,4,0.4,5.7,0.7c1,0.2,2.1,0.3,3.2,0.5c1.8,0.3,3.6,0.6,5.4,0.9
		c2.9,0.5,5.8,1,8.4,1.5c1.8,0.3,3.4,0.6,4.8,0.9l0.1,0c1.7,0.3,3.3,0.6,5,1c0.2,0,0.4,0.1,0.5,0.1c3.3,0.7,6.7,1.5,10,2.3
		c0-2.1,0-4.2,0-6.2c-4.7-1.2-9.4-2.2-14.1-3.1c0-4.7,0-14,0-14l8.1,1.7l2.4-5.7l-10.6-2.3c0,0,0-9.1,0-13.6c4.7,0.9,9.4,1.9,14,3.1
		c0-2,0-4,0-6.1c-6.7-1.6-13.5-3-20.3-4.2c0,6.5,0,36.3,0,43.4c-2.5-1.1-5.2-2.3-8-3.6c0.8-9.3,2.6-29.1,3.7-40.5
		c-2.1-0.3-6.5-1-6.5-1l-1.6,20.9l-4.6-20.6L124,22.7l-1.4-21.3L116.3,1c0,0,0.7,10.5,1.5,21.6l-10.3,3.7L99.8,0l-7.7,26.3l-10-3.6
		V4.5c0,0-2.3-2.2-3.4-3.2C72.9,1.8,67,2.4,61.1,3.2c0,2.1,0,6.4,0,6.4v6.2c0,0,0,19,0,28.5c-1.6,0.7-3.2,1.4-4.7,2.1
		c0-16.1,0-42.5,0-42.5L50,5l-5.5,17.1L38.9,7.3l-6.3,1.5V15v40l6.3-1.5V26.9l5.6,14.3L50,24.6v24.7c-3.5,1.6-6,2.7-6,2.7l-1.5,0.7
		l1.6-0.3c0.1,0,2.4-0.5,5.9-1.2c1.9-0.4,4.1-0.8,6.4-1.2c1.5-0.3,3.1-0.6,4.7-0.8c2.2-0.4,4.4-0.7,6.5-1.1c0.9-0.1,1.7-0.3,2.5-0.4
		c4.7-0.7,12.1-1.2,13.6-1.3l-6.2,16.9l-3.5,9.5l9.2-7.7l8.6-7.2L94,68.4l5.8,28.2l5.1-24.9l2.8-13.8l17.8,14.9l-9.7-26.4
		C116.5,46.5,117.9,46.6,119.7,46.7z M129.2,27.4l2.3,13.8c-1.8-0.8-3.7-1.6-5.5-2.4L129.2,27.4z M122,23.4l-2.5,12.7
		c-0.3-0.1-0.5-0.2-0.8-0.3c-0.7-0.3-1.2-0.5-1.4-0.6l1.2-2.9L122,23.4z M67.8,8.7c0,0,5.2-0.6,7.8-0.8c0,4.5,0,9.1,0,13.6
		c-2.6,0.2-5.2,0.5-7.8,0.8C67.8,17.8,67.8,8.7,67.8,8.7z M67.8,28.4c0,0,6.5-0.7,10.1-1l-0.5-4.7l1.6,4l3.4,8.5
		c-0.4,0.2-1.6,0.6-3.1,1.3c-3,1.2-7.5,3.1-11.6,4.9C67.7,35.1,67.8,28.4,67.8,28.4z M119.8,64.1l1.1,1.6l-1.5-1.3
		c-2.5-2.2-4.9-4.9-7.3-8.3c-1.1-1.7-2.1-3.3-2.8-4.8c-0.1-0.3-0.3-0.6-0.4-0.9c-0.3-0.5-0.5-1.1-0.7-1.7l-0.1-0.4
		c-0.3-0.7-0.6-1.5-0.8-2.3l0.2-0.2v0l-0.3,0.1c-0.4-1.3-0.7-2.8-0.9-4.4c-1.5-0.1-3-0.2-4.4-0.2c0,1.2,0,2.5,0,3.7l0,0.9
		c0,2.5-0.1,5-0.2,7.6l-0.3,8.4c-0.3,5.1-0.6,11-1.2,16.8l-0.3,2.6l-0.3-2.6c-0.6-5.8-1-11.7-1.2-16.8L98,53.5
		c-0.1-2.5-0.1-5-0.2-7.5l0-0.9c0-1.2,0-2.5,0-3.7c-1.5,0-3.2,0.1-4.8,0.2c-0.2,1.7-0.5,3.2-0.9,4.5c-0.2,0.9-0.5,1.6-0.8,2.4
		l-0.1,0.3c-0.2,0.6-0.5,1.1-0.7,1.7c-0.1,0.3-0.3,0.6-0.4,0.9c-0.8,1.6-1.7,3.1-2.7,4.8c-1.1,1.7-2.2,3.1-3.3,4.4
		c-1.1,1.3-2.3,2.7-3.7,4l-1.3,1.2l0.9-1.6c2.2-3.8,3.7-6.7,5-9.4c0.3-0.5,0.5-1.1,0.8-1.6c0.1-0.3,0.2-0.5,0.3-0.8l1-2.4
		c0.5-1.4,1-2.6,1.3-3.8c0.1-0.3,0.2-0.7,0.3-1c0.3-1,0.5-2,0.6-3.2c-3.4,0.3-6.6,0.8-9.7,1.3c-4.4,0.8-9,1.7-14.1,2.9
		c-2.1,0.5-4.1,1-6.2,1.5l-2.6,0.7l2.4-1.2c2-1,4-1.9,6.2-2.8c4.4-1.8,8.9-3.3,13.6-4.4c3.7-1,7.5-1.6,10.3-2l-0.2-0.8
		c0-0.1-0.1-0.3-0.2-0.4c-0.1-0.2-0.2-0.4-0.3-0.6c-0.4-0.7-0.8-1.5-1.2-2.1c-0.4-0.6-0.8-1.3-1.3-1.9l-0.1-0.2
		c-1-1.4-2.1-2.8-3.2-4.3l-0.7-0.8l12.4,4.9l-4.1,1.1c0.4,0.5,0.8,1.1,1.2,1.7c0.2,0.3,0.3,0.6,0.5,0.9c0.1,0.1,0.1,0.3,0.2,0.4
		c0.2,0.3,0.3,0.7,0.4,1c0.1,0.2,0.1,0.3,0.2,0.5l0.1,0.3c1.6-0.1,3.3-0.2,5-0.3c0-3.5,0-6.3,0.1-9c0.2-4.6,0.6-10.7,1.7-16.8
		l0.3-1.6l0.3,1.6c1.1,6.1,1.5,12.2,1.7,16.8c0.1,2.6,0.2,5.5,0.1,9c1.5,0.1,3,0.1,4.5,0.3l0.1-0.4c0.1-0.2,0.1-0.3,0.2-0.5
		c0.1-0.3,0.2-0.7,0.4-1c0.1-0.2,0.2-0.3,0.2-0.4c0.2-0.3,0.3-0.6,0.5-0.9c0.3-0.5,0.7-1.1,1.1-1.6l-3.7-1l12.6-4.9l-0.8,0.9
		c-1,1.2-2.1,2.4-3.4,4.1c-0.6,0.8-1.1,1.4-1.5,2.1c-0.5,0.8-0.9,1.5-1.2,2.1c-0.1,0.2-0.2,0.4-0.3,0.7c-0.1,0.1-0.1,0.3-0.2,0.4
		l-0.3,0.8l0.3,0c2.9,0.4,6.7,1,10.4,2l0.9,0.2c1.6,0.4,3,0.8,4.4,1.2c0.9,0.3,1.8,0.6,2.7,0.9c1.2,0.4,2.4,0.9,3.7,1.3
		c1.6,0.6,3.2,1.3,4.7,2c1.3,0.6,2.4,1.1,3.4,1.6l2.4,1.2l-2.6-0.7c-0.9-0.2-1.8-0.5-2.7-0.7l-0.7-0.2c-1.7-0.4-3.3-0.8-5-1.2
		c-1.1-0.2-2.1-0.5-3.2-0.7l-0.3-0.1c-1-0.2-2.1-0.4-3.1-0.7c-1.1-0.2-2.3-0.4-3.4-0.7l-0.9-0.2c-0.3-0.1-0.7-0.1-1-0.2
		c-3.2-0.5-6.7-1.1-10.2-1.4c0.2,1.2,0.4,2.3,0.7,3.3l0.2,0.7c0.8,2.9,2,5.8,3.6,9C116.1,58,117.9,61.1,119.8,64.1z"/>
</g>
</svg>
